# xmcd
#
# Track frame offsets:
#	150
#	16851
#	34335
#	50461
#	64024
#	81347
#	97884
#	116374
#	142408
#	165054
#	181835
#	200079
#	218289
#	233589
#	248897
#
# Disc length: 3556 seconds
#
# Revision: 0
# Processed by: cddbd v1.5.2PL0 Copyright (c) Steve Scherf et al.
# Submitted via: audiograbber 1.83.01
#
DISCID=be0de20f
DTITLE=JonesTM - HC200717
DYEAR=2007
DGENRE=Top 40
TTITLE0=Cowboy Crush - Some Men
TTITLE1=Ty Herndon - Mighty, Mighty Love
TTITLE2=Whiskey Falls - Last Train Running
TTITLE3=Joe Nichols - Another Side Of You
TTITLE4=Jamie Slocum - Say Hello To Heaven
TTITLE5=Sarah Johns - The One In The Middle
TTITLE6=Macy Gray Feat. Natalie Cole - Finally Made Me Happy
TTITLE7=Patti LaBelle Feat. Kanye West, MaryMary And Consequence - Anything [Al
TTITLE7=bum Version]
TTITLE8=Boney James Feat. Dwele - In The Rain [Album Version]
TTITLE9=Marques Houston - Wonderful
TTITLE10=John Legend - Another Again
TTITLE11=Donnie - If I Were You
TTITLE12=Acoustic Alchemy - Ernie [Radio Edit, Without Ernie]
TTITLE13=Acoustic Alchemy - Ernie [Radio Edit, With Ernie]
TTITLE14=Pieces Of A Dream - Teresa
EXTD=
EXTT0=
EXTT1=
EXTT2=
EXTT3=
EXTT4=
EXTT5=
EXTT6=
EXTT7=
EXTT8=
EXTT9=
EXTT10=
EXTT11=
EXTT12=
EXTT13=
EXTT14=
PLAYORDER=
